<svg xmlns="http://www.w3.org/2000/svg" viewBox="0 0 900 500" role="img" aria-labelledby="title desc">
  <title id="title">Ugandan hostel operations dashboard</title>
  <desc id="desc">A clean operations board with occupancy and maintenance cards.</desc>
  <rect width="900" height="500" fill="#f2f7ff"/>
  <rect x="70" y="70" width="760" height="360" rx="18" fill="#ffffff" stroke="#d2def2" stroke-width="4"/>
  <rect x="105" y="108" width="280" height="55" rx="10" fill="#e7f0ff"/>
  <rect x="405" y="108" width="175" height="55" rx="10" fill="#e7f0ff"/>
  <rect x="600" y="108" width="195" height="55" rx="10" fill="#e7f0ff"/>
  <rect x="105" y="190" width="220" height="105" rx="12" fill="#dce8fb"/>
  <rect x="345" y="190" width="220" height="105" rx="12" fill="#dce8fb"/>
  <rect x="585" y="190" width="210" height="105" rx="12" fill="#dce8fb"/>
  <rect x="105" y="315" width="690" height="80" rx="12" fill="#edf4ff"/>
  <circle cx="170" cy="355" r="18" fill="#5f7fae"/>
  <rect x="205" y="345" width="230" height="20" rx="10" fill="#9cb7da"/>
  <rect x="455" y="345" width="150" height="20" rx="10" fill="#9cb7da"/>
  <rect x="625" y="345" width="140" height="20" rx="10" fill="#9cb7da"/>
  <text x="450" y="45" text-anchor="middle" font-family="Segoe UI, Arial, sans-serif" font-size="34" fill="#1e3f66">
    Hostel Operations - Uganda
  </text>
</svg>
