<svg xmlns="http://www.w3.org/2000/svg" viewBox="0 0 1600 900" role="img" aria-labelledby="title desc">
  <title id="title">Ugandan campus hostel scene</title>
  <desc id="desc">Illustration of a Ugandan campus with hostel blocks and students walking.</desc>
  <defs>
    <linearGradient id="sky" x1="0" y1="0" x2="0" y2="1">
      <stop offset="0%" stop-color="#4e79d9"/>
      <stop offset="100%" stop-color="#9cc5ff"/>
    </linearGradient>
    <linearGradient id="ground" x1="0" y1="0" x2="1" y2="0">
      <stop offset="0%" stop-color="#3e7f4f"/>
      <stop offset="100%" stop-color="#5ea66a"/>
    </linearGradient>
  </defs>
  <rect width="1600" height="900" fill="url(#sky)"/>
  <rect y="560" width="1600" height="340" fill="url(#ground)"/>
  <circle cx="1370" cy="140" r="64" fill="#ffd866"/>
  <rect x="160" y="270" width="460" height="330" rx="12" fill="#f3f1e8"/>
  <rect x="195" y="305" width="390" height="60" fill="#c3d5ee"/>
  <rect x="195" y="390" width="95" height="80" fill="#8da9cf"/>
  <rect x="315" y="390" width="95" height="80" fill="#8da9cf"/>
  <rect x="435" y="390" width="95" height="80" fill="#8da9cf"/>
  <rect x="195" y="492" width="95" height="80" fill="#8da9cf"/>
  <rect x="315" y="492" width="95" height="80" fill="#8da9cf"/>
  <rect x="435" y="492" width="95" height="80" fill="#8da9cf"/>
  <rect x="300" y="505" width="180" height="95" fill="#6f4b34"/>
  <rect x="760" y="220" width="640" height="380" rx="12" fill="#f6f2e6"/>
  <rect x="805" y="265" width="550" height="70" fill="#ccd9ef"/>
  <rect x="805" y="360" width="110" height="92" fill="#8aa4c7"/>
  <rect x="940" y="360" width="110" height="92" fill="#8aa4c7"/>
  <rect x="1075" y="360" width="110" height="92" fill="#8aa4c7"/>
  <rect x="1210" y="360" width="110" height="92" fill="#8aa4c7"/>
  <rect x="805" y="480" width="110" height="92" fill="#8aa4c7"/>
  <rect x="940" y="480" width="110" height="92" fill="#8aa4c7"/>
  <rect x="1075" y="480" width="110" height="92" fill="#8aa4c7"/>
  <rect x="1210" y="480" width="110" height="92" fill="#8aa4c7"/>
  <path d="M0 680 Q240 625 470 690 T940 700 T1600 690 L1600 900 L0 900 Z" fill="#2f6d3f" opacity=".65"/>
  <circle cx="620" cy="700" r="22" fill="#2f2f2f"/>
  <rect x="607" y="722" width="26" height="62" rx="8" fill="#1f2430"/>
  <circle cx="693" cy="700" r="22" fill="#372a22"/>
  <rect x="680" y="722" width="26" height="62" rx="8" fill="#243042"/>
  <circle cx="1230" cy="710" r="21" fill="#3f3127"/>
  <rect x="1218" y="731" width="24" height="56" rx="8" fill="#1f3049"/>
  <text x="800" y="95" text-anchor="middle" font-family="Segoe UI, Arial, sans-serif" font-size="52" fill="#ffffff" opacity=".9">
    Uganda Campus Housing
  </text>
</svg>
